<svg width="56" height="56" viewBox="0 0 56 56" fill="none" xmlns="http://www.w3.org/2000/svg">
<rect x="3.5" y="3.5" width="49" height="49" rx="24.5" fill="white" stroke="#DCDFE3"/>
<mask id="mask0" mask-type="alpha" maskUnits="userSpaceOnUse" x="0" y="0" width="56" height="56">
<rect width="56" height="56" rx="28" fill="white"/>
</mask>
<g mask="url(#mask0)">
<path fill-rule="evenodd" clip-rule="evenodd" d="M12.971 36.83C12.7784 36.8462 12.5875 36.7823 12.4414 36.6527C12.2953 36.5231 12.2062 36.3387 12.1943 36.1411V16.8877C12.2062 16.6901 12.2953 16.5057 12.4414 16.3761C12.5875 16.2464 12.7784 16.1825 12.971 16.1988L43.0577 16.1988C43.2503 16.1826 43.4411 16.2464 43.5873 16.3761C43.7333 16.5057 43.8224 16.6901 43.8343 16.8877V36.0453C43.7906 36.5188 43.3837 36.8684 42.921 36.83H12.971Z" fill="white"/>
<path fill-rule="evenodd" clip-rule="evenodd" d="M12.971 36.83C12.7784 36.8462 12.5875 36.7823 12.4414 36.6527C12.2953 36.5231 12.2062 36.3387 12.1943 36.1411V16.8877C12.2062 16.6901 12.2953 16.5057 12.4414 16.3761C12.5875 16.2464 12.7784 16.1825 12.971 16.1988H43.0577C43.2503 16.1825 43.4411 16.2464 43.5873 16.3761C43.7333 16.5057 43.8224 16.6901 43.8343 16.8877V36.0453C43.7906 36.5188 43.3837 36.8684 42.9211 36.83H12.971Z" stroke="#008481" stroke-width="1.5" stroke-linecap="round" stroke-linejoin="round"/>
<mask id="mask1" mask-type="alpha" maskUnits="userSpaceOnUse" x="33" y="29" width="14" height="14">
<path fill-rule="evenodd" clip-rule="evenodd" d="M33 29H47V43H33V29Z" fill="white"/>
</mask>
<g mask="url(#mask1)">
<path fill-rule="evenodd" clip-rule="evenodd" d="M47 36C47 39.866 43.866 43 40 43C36.134 43 33 39.866 33 36C33 32.134 36.134 29 40 29C43.866 29 47 32.134 47 36Z" fill="#57B520"/>
<path d="M43 35.9998H37" stroke="white" stroke-width="2" stroke-linecap="round"/>
</g>
<mask id="mask2" mask-type="alpha" maskUnits="userSpaceOnUse" x="25" y="18" width="17" height="18">
<path fill-rule="evenodd" clip-rule="evenodd" d="M25.0137 18.1982H41.6665V35.8306H25.0137V18.1982Z" fill="white"/>
</mask>
<g mask="url(#mask2)">
<path fill-rule="evenodd" clip-rule="evenodd" d="M41.6665 18.1982V35.8306H25.0137L41.6665 18.1982Z" fill="#00C1BF" fill-opacity="0.2"/>
</g>
<path fill-rule="evenodd" clip-rule="evenodd" d="M27.4982 20C24.4601 20 22 23.1351 22 27.0036C22 30.8721 24.4601 34 27.4982 34C30.5364 34 33 30.8721 33 27.0036C33 23.1351 30.5364 20 27.4982 20ZM30.6245 29.0781C30.2719 28.9533 29.9043 28.8783 29.5319 28.8552C29.21 28.8351 28.895 28.7508 28.6049 28.6071C29.5648 28.0871 30.1543 27.0585 30.1275 25.9502C30.1275 24.3431 28.9433 23.038 27.4841 23.038C26.025 23.038 24.8408 24.3431 24.8408 25.9502C24.8192 27.0659 25.4223 28.0967 26.3951 28.6071C26.1047 28.7563 25.7887 28.8466 25.4646 28.8731C25.0922 28.8966 24.7246 28.9716 24.372 29.096C24.083 29.2153 23.8463 29.4376 23.7059 29.7216C23.3722 28.8623 23.2023 27.9459 23.2054 27.0216C23.2054 23.8398 25.1333 21.2691 27.4982 21.2691C29.8632 21.2691 31.7911 23.8577 31.7911 27.0216C31.796 27.946 31.626 28.8628 31.2906 29.7216C31.1548 29.4301 30.9173 29.2006 30.6245 29.0781Z" fill="#57B520"/>
<path fill-rule="evenodd" clip-rule="evenodd" d="M23.6381 33.2109H19.0797C19.07 31.8785 18.0217 30.8036 16.7318 30.8036V23.2109C18.0271 23.2109 19.0777 22.1272 19.0797 20.7891H23.6381C24.2683 19.9982 25.0804 19.3832 26 19H15V35H26C25.0814 34.615 24.2698 34.0002 23.6381 33.2109Z" fill="#57B520" fill-opacity="0.4"/>
<path fill-rule="evenodd" clip-rule="evenodd" d="M32.3619 20.7709H36.9379C36.9379 22.1084 37.9875 23.1927 39.2822 23.1927V30.7855C37.9875 30.7855 36.9379 31.8697 36.9379 33.2073L32.3619 33.2073C31.7306 33.9979 30.919 34.6139 30 35H41V19H30C30.9177 19.378 31.7296 19.9867 32.3619 20.7709Z" fill="#57B520" fill-opacity="0.4"/>
</g>
</svg>
