<svg width="960" height="720" viewBox="0 0 960 720" fill="none" xmlns="http://www.w3.org/2000/svg">
<g clip-path="url(#clip0_1223_1803)">
<path d="M771.132 157.127C787.696 161.565 800.634 174.504 805.073 191.068L907.233 572.336C911.672 588.901 906.936 606.575 894.81 618.701L615.702 897.809C603.576 909.935 585.902 914.67 569.338 910.232L188.07 808.071C171.505 803.633 158.567 790.695 154.128 774.13L51.9679 392.862C47.5294 376.298 52.2652 358.623 64.3912 346.497L343.499 67.3898C355.625 55.2638 373.299 50.528 389.863 54.9665L771.132 157.127Z" fill="#ECEEEF"/>
<path d="M651.566 187H309.15C304.649 187 301 190.649 301 195.15V712.23C301 716.731 304.649 720.38 309.15 720.38H651.566C656.068 720.38 659.716 716.731 659.716 712.23V195.15C659.716 190.649 656.068 187 651.566 187Z" fill="white"/>
<path fill-rule="evenodd" clip-rule="evenodd" d="M651.566 189H309.15C305.753 189 303 191.753 303 195.15V712.23C303 715.627 305.753 718.38 309.15 718.38H651.566C654.963 718.38 657.716 715.627 657.716 712.23V195.15C657.716 191.753 654.963 189 651.566 189ZM309.15 187H651.566C656.068 187 659.716 190.649 659.716 195.15V712.23C659.716 716.731 656.068 720.38 651.566 720.38H309.15C304.649 720.38 301 716.731 301 712.23V195.15C301 190.649 304.649 187 309.15 187Z" fill="#D4D9DC"/>
<path d="M620.248 229.893H344.228C339.543 229.893 335.745 233.69 335.745 238.375V322.825C335.745 327.51 339.543 331.308 344.228 331.308H620.248C624.933 331.308 628.731 327.51 628.731 322.825V238.375C628.731 233.69 624.933 229.893 620.248 229.893Z" fill="#F4F7F9"/>
<path d="M394.382 374.381H353.167C348.212 374.381 344.194 378.399 344.194 383.354V431.139C344.194 436.095 348.212 440.112 353.167 440.112H394.382C399.338 440.112 403.355 436.095 403.355 431.139V383.354C403.355 378.399 399.338 374.381 394.382 374.381Z" fill="#D4D9DC"/>
<path d="M466.691 374.381H425.476C420.52 374.381 416.503 378.399 416.503 383.354V431.139C416.503 436.095 420.52 440.112 425.476 440.112H466.691C471.646 440.112 475.664 436.095 475.664 431.139V383.354C475.664 378.399 471.646 374.381 466.691 374.381Z" fill="#D4D9DC"/>
<path d="M538.999 374.381H497.785C492.829 374.381 488.812 378.399 488.812 383.354V431.139C488.812 436.095 492.829 440.112 497.785 440.112H538.999C543.955 440.112 547.972 436.095 547.972 431.139V383.354C547.972 378.399 543.955 374.381 538.999 374.381Z" fill="#D4D9DC"/>
<path d="M611.308 374.381H570.093C565.137 374.381 561.12 378.399 561.12 383.354V431.139C561.12 436.095 565.137 440.112 570.093 440.112H611.308C616.264 440.112 620.281 436.095 620.281 431.139V383.354C620.281 378.399 616.264 374.381 611.308 374.381Z" fill="#F69F14"/>
<path d="M394.382 453.689H353.167C348.212 453.689 344.194 457.707 344.194 462.663V510.447C344.194 515.403 348.212 519.42 353.167 519.42H394.382C399.338 519.42 403.355 515.403 403.355 510.447V462.663C403.355 457.707 399.338 453.689 394.382 453.689Z" fill="#D4D9DC"/>
<path d="M466.691 453.689H425.476C420.52 453.689 416.503 457.707 416.503 462.663V510.447C416.503 515.403 420.52 519.42 425.476 519.42H466.691C471.646 519.42 475.664 515.403 475.664 510.447V462.663C475.664 457.707 471.646 453.689 466.691 453.689Z" fill="#D4D9DC"/>
<path d="M538.999 453.689H497.785C492.829 453.689 488.812 457.707 488.812 462.663V510.447C488.812 515.403 492.829 519.42 497.785 519.42H538.999C543.955 519.42 547.972 515.403 547.972 510.447V462.663C547.972 457.707 543.955 453.689 538.999 453.689Z" fill="#D4D9DC"/>
<path d="M394.382 533.508H353.167C348.212 533.508 344.194 537.525 344.194 542.481V590.266C344.194 595.221 348.212 599.239 353.167 599.239H394.382C399.338 599.239 403.355 595.221 403.355 590.266V542.481C403.355 537.525 399.338 533.508 394.382 533.508Z" fill="#D4D9DC"/>
<path d="M466.691 533.508H425.476C420.52 533.508 416.503 537.525 416.503 542.481V590.266C416.503 595.221 420.52 599.239 425.476 599.239H466.691C471.646 599.239 475.664 595.221 475.664 590.266V542.481C475.664 537.525 471.646 533.508 466.691 533.508Z" fill="#D4D9DC"/>
<path d="M538.999 533.508H497.785C492.829 533.508 488.812 537.525 488.812 542.481V590.266C488.812 595.221 492.829 599.239 497.785 599.239H538.999C543.955 599.239 547.972 595.221 547.972 590.266V542.481C547.972 537.525 543.955 533.508 538.999 533.508Z" fill="#D4D9DC"/>
<path d="M538.999 613.326H497.785C492.829 613.326 488.812 617.344 488.812 622.299V670.084C488.812 675.039 492.829 679.057 497.785 679.057H538.999C543.955 679.057 547.972 675.039 547.972 670.084V622.299C547.972 617.344 543.955 613.326 538.999 613.326Z" fill="#D4D9DC"/>
<path d="M611.447 453.689H571.081C565.891 453.689 561.684 457.897 561.684 463.087V510.023C561.684 515.213 565.891 519.42 571.081 519.42H611.447C616.637 519.42 620.845 515.213 620.845 510.023V463.087C620.845 457.897 616.637 453.689 611.447 453.689Z" fill="#D4D9DC"/>
<path d="M467.315 613.326H352.544C347.932 613.326 344.194 617.064 344.194 621.676V670.707C344.194 675.319 347.932 679.057 352.544 679.057H467.315C471.926 679.057 475.664 675.319 475.664 670.707V621.676C475.664 617.064 471.926 613.326 467.315 613.326Z" fill="#D4D9DC"/>
<path d="M611.854 534H570.514C565.637 534 561.684 538.325 561.684 543.659V669.341C561.684 674.675 565.637 679 570.514 679H611.854C616.73 679 620.684 674.675 620.684 669.341V543.659C620.684 538.325 616.73 534 611.854 534Z" fill="#D4D9DC"/>
<path d="M248.605 724.393C240.728 717.668 235.944 707.045 237.198 696.703C238.453 686.361 246.224 676.854 256.305 674.658C266.385 672.461 277.876 678.541 280.937 688.49C282.622 669.308 284.564 649.322 294.658 632.986C303.797 618.195 319.626 607.611 336.782 605.718C353.937 603.824 372 610.976 382.699 624.657C393.399 638.339 396.018 658.229 388.525 673.937C383.005 685.509 372.834 694.12 362.179 701.126C327.746 723.574 286.448 732.703 245.884 726.832L248.605 724.393Z" fill="#1DAC5F"/>
<path d="M365.734 611.372C351.579 623.022 338.593 636.051 326.964 650.272C315.333 664.478 305.093 679.791 296.388 695.995C291.523 705.084 287.152 714.435 283.295 724.006C282.509 725.953 285.638 726.801 286.416 724.876C293.247 708.002 301.698 691.845 311.648 676.637C321.55 661.484 332.883 647.338 345.489 634.396C352.619 627.08 360.141 620.165 368.022 613.684C369.638 612.355 367.336 610.054 365.734 611.372Z" fill="white"/>
<path d="M881.347 616.621C881.347 608.259 849.881 601.48 811.067 601.48C772.253 601.48 740.787 608.259 740.787 616.621C740.787 621.98 753.723 626.685 773.224 629.376V712.329C773.224 714.194 773.964 715.982 775.282 717.3C776.6 718.618 778.388 719.359 780.252 719.359C782.116 719.359 783.904 718.618 785.222 717.3C786.54 715.982 787.28 714.194 787.28 712.329V630.87C794.71 631.446 802.717 631.761 811.067 631.761C819.418 631.761 827.424 631.446 834.854 630.87V712.329C834.854 714.194 835.595 715.982 836.913 717.3C838.231 718.618 840.018 719.359 841.882 719.359C843.746 719.359 845.534 718.618 846.852 717.3C848.17 715.982 848.91 714.194 848.91 712.329V629.376C868.411 626.685 881.347 621.98 881.347 616.621Z" fill="#C2C7CA"/>
<path d="M818.839 478.041C835.559 478.041 849.113 464.484 849.113 447.76C849.113 431.037 835.559 417.479 818.839 417.479C802.119 417.479 788.564 431.037 788.564 447.76C788.564 464.484 802.119 478.041 818.839 478.041Z" fill="#1C1F2A"/>
<path d="M743.497 706.84H730.241L723.936 655.7H743.499L743.497 706.84Z" fill="#E4C5A8"/>
<path d="M720.774 703.051H746.338V719.151H704.678C704.678 717.036 705.094 714.943 705.903 712.99C706.712 711.036 707.898 709.262 709.392 707.767C710.887 706.272 712.661 705.086 714.614 704.277C716.567 703.468 718.66 703.051 720.774 703.051Z" fill="#1C1F2A"/>
<path d="M722.806 699.44L710.158 695.47L719.448 644.788L738.115 650.646L722.806 699.44Z" fill="#E4C5A8"/>
<path d="M702.258 689.02L726.65 696.676L721.83 712.037L682.081 699.561C682.714 697.543 683.738 695.671 685.094 694.049C686.451 692.428 688.113 691.089 689.987 690.111C691.861 689.132 693.909 688.532 696.014 688.345C698.12 688.158 700.241 688.387 702.258 689.02Z" fill="#1C1F2A"/>
<path d="M727.118 679.036C726.537 679.036 725.961 678.931 725.418 678.727L715.666 675.069C714.571 674.655 713.662 673.861 713.103 672.832C712.545 671.803 712.374 670.608 712.623 669.464C715.079 658.422 723.446 620.83 728.028 600.667C733.462 576.75 812.735 572.306 816.106 572.129L816.383 572.114L825.301 583.322C828.523 593.682 827.502 601.762 822.265 607.339C806.985 623.612 761.362 613.514 755.922 612.236L731.673 675.903C731.32 676.825 730.695 677.618 729.882 678.177C729.069 678.736 728.105 679.036 727.118 679.036Z" fill="#1C1F2A"/>
<path d="M741.174 686.606C740.594 686.606 740.018 686.501 739.475 686.296L729.723 682.639C728.628 682.225 727.718 681.431 727.16 680.402C726.601 679.373 726.431 678.177 726.68 677.033C729.135 665.992 737.503 628.4 742.085 608.236C747.519 584.32 826.791 579.876 830.163 579.698L830.44 579.684L839.358 590.892C842.58 601.251 841.559 609.332 836.322 614.909C821.042 631.18 775.419 621.084 769.979 619.806L745.73 683.472C745.377 684.394 744.752 685.187 743.939 685.747C743.125 686.306 742.161 686.606 741.174 686.606Z" fill="#1C1F2A"/>
<path d="M712.959 530.855C713.318 531.334 713.638 531.841 713.916 532.371L767.243 537.99L774.919 527.463L792.317 536.974L777.239 562.52L711.839 545.841C710.189 547.45 708.088 548.518 705.816 548.904C703.544 549.29 701.209 548.975 699.12 548.001C697.032 547.026 695.289 545.439 694.125 543.451C692.96 541.462 692.428 539.165 692.6 536.867C692.772 534.568 693.639 532.377 695.087 530.583C696.534 528.79 698.493 527.48 700.704 526.827C702.914 526.175 705.27 526.211 707.459 526.93C709.649 527.65 711.567 529.019 712.959 530.855L712.959 530.855Z" fill="#E4C5A8"/>
<path d="M836.882 595.182C836.111 595.18 835.352 594.994 834.666 594.64C824.003 589.217 803.239 579.825 783.984 577.86C783.325 577.795 782.687 577.594 782.111 577.268C781.534 576.942 781.033 576.499 780.637 575.967C780.235 575.43 779.946 574.816 779.791 574.163C779.636 573.51 779.617 572.832 779.736 572.171C781.473 562.551 785.459 538.054 784.946 518.421C784.795 512.385 786.701 506.476 790.353 501.667C794.004 496.858 799.183 493.435 805.037 491.961C808.562 491.031 812.141 490.325 815.755 489.847C819.909 489.321 824.128 489.775 828.074 491.173C832.021 492.571 835.585 494.874 838.482 497.898C841.378 500.921 843.527 504.581 844.755 508.585C845.983 512.588 846.256 516.824 845.553 520.952C842.119 541.298 838.658 569.714 841.666 589.551C841.805 590.44 841.694 591.35 841.347 592.18C841 593.01 840.43 593.728 839.7 594.254C838.883 594.854 837.896 595.179 836.882 595.182Z" fill="#B21F29"/>
<path d="M785.933 543.433C785.268 543.432 784.61 543.295 784.001 543.03L770.109 537.015C768.926 536.501 767.995 535.539 767.521 534.339C767.046 533.14 767.066 531.801 767.577 530.616L778.315 505.805C778.963 504.305 779.9 502.948 781.073 501.81C782.246 500.673 783.631 499.778 785.149 499.176C786.668 498.574 788.29 498.278 789.924 498.303C791.557 498.329 793.169 498.676 794.668 499.325C796.167 499.974 797.524 500.912 798.66 502.085C799.797 503.259 800.691 504.645 801.292 506.164C801.892 507.684 802.188 509.306 802.161 510.94C802.135 512.574 801.787 514.186 801.137 515.685L790.399 540.496C790.021 541.367 789.397 542.109 788.604 542.631C787.81 543.153 786.882 543.432 785.933 543.433V543.433Z" fill="#B21F29"/>
<path d="M817.732 481.406C832.398 481.406 844.288 469.514 844.288 454.845C844.288 440.175 832.398 428.283 817.732 428.283C803.065 428.283 791.176 440.175 791.176 454.845C791.176 469.514 803.065 481.406 817.732 481.406Z" fill="#E4C5A8"/>
<path d="M790.697 441.795C803.276 449.475 817.457 454.149 832.137 455.452L827.769 450.217C830.949 451.394 834.296 452.058 837.684 452.187C841.069 452.134 844.615 450.831 846.536 448.043C847.392 446.657 847.901 445.085 848.019 443.46C848.137 441.835 847.86 440.205 847.212 438.71C845.881 435.729 843.809 433.137 841.193 431.183C836.557 427.515 831.086 425.051 825.267 424.011C819.448 422.971 813.463 423.387 807.843 425.222C803.989 426.374 800.537 428.589 797.883 431.612C795.365 434.719 790.518 437.486 791.807 441.272L790.697 441.795Z" fill="#1C1F2A"/>
<path d="M822.197 420.36C813.821 411.864 803.685 405.309 792.503 401.154C785.325 398.494 777.512 396.851 770.008 398.361C762.504 399.872 755.407 405.064 753.313 412.429C751.602 418.451 753.369 424.934 756.026 430.603C758.683 436.272 762.23 441.528 764.378 447.409C766.57 453.409 767.229 459.861 766.296 466.181C765.363 472.5 762.866 478.486 759.033 483.596C755.199 488.705 750.151 492.776 744.346 495.439C738.541 498.102 732.162 499.273 725.79 498.845C733.163 499.834 739.96 503.3 747.167 505.144C754.374 506.989 762.88 506.864 768.236 501.7C773.902 496.236 774.016 487.352 773.742 479.484C773.335 467.788 772.927 456.092 772.52 444.396C772.312 438.432 772.135 432.276 774.286 426.709C776.436 421.141 781.547 416.266 787.514 416.317C792.037 416.355 796.039 419.096 799.666 421.798C803.293 424.5 807.131 427.383 811.636 427.785C816.14 428.187 821.283 424.853 820.946 420.342" fill="#1C1F2A"/>
<path d="M773.084 588.359C771.324 588.357 769.587 587.965 767.997 587.21C766.407 586.456 765.005 585.358 763.89 583.996C762.776 582.634 761.977 581.042 761.552 579.334C761.127 577.626 761.085 575.845 761.431 574.12C761.777 572.394 762.501 570.766 763.552 569.354C764.602 567.942 765.953 566.781 767.506 565.954C769.059 565.127 770.776 564.654 772.534 564.571C774.292 564.488 776.046 564.795 777.671 565.472H777.671C778.16 565.678 778.634 565.918 779.089 566.19L827.464 544.467L828.823 531.345L849.675 530.787L849.537 552.634C849.512 555.164 848.671 557.62 847.14 559.634C845.609 561.649 843.469 563.117 841.038 563.819L784.466 579.925C784.356 580.299 784.226 580.667 784.077 581.027C783.17 583.196 781.642 585.048 779.687 586.352C777.731 587.656 775.434 588.355 773.084 588.359V588.359Z" fill="#E4C5A8"/>
<path d="M847.909 541.496C847.316 541.796 846.668 541.972 846.004 542.011L830.896 542.941C829.608 543.018 828.342 542.582 827.376 541.727C826.41 540.873 825.822 539.67 825.741 538.382L824.082 511.397C823.979 509.765 824.199 508.129 824.728 506.582C825.258 505.036 826.087 503.609 827.169 502.383C828.251 501.157 829.563 500.157 831.032 499.439C832.501 498.721 834.096 498.3 835.728 498.199C837.359 498.099 838.995 498.321 840.54 498.854C842.086 499.386 843.511 500.218 844.735 501.302C845.959 502.386 846.957 503.7 847.672 505.171C848.387 506.641 848.806 508.237 848.903 509.87L850.562 536.855C850.619 537.803 850.399 538.747 849.928 539.571C849.457 540.396 848.755 541.065 847.909 541.496L847.909 541.496Z" fill="#B21F29"/>
<path d="M815.073 591.087H729.656C728.652 591.087 727.69 590.689 726.98 589.979C726.27 589.269 725.872 588.306 725.872 587.302C725.872 586.298 726.27 585.336 726.98 584.626C727.69 583.916 728.652 583.517 729.656 583.517H815.073C816.077 583.517 817.039 583.916 817.749 584.626C818.459 585.336 818.857 586.298 818.857 587.302C818.857 588.306 818.459 589.269 817.749 589.979C817.039 590.689 816.077 591.087 815.073 591.087Z" fill="#A3ADB2"/>
<path d="M692.354 584.058V531.067C692.356 529.203 693.097 527.417 694.414 526.099C695.732 524.781 697.518 524.04 699.382 524.038H795.611C797.474 524.04 799.261 524.781 800.578 526.099C801.896 527.417 802.637 529.203 802.639 531.067V584.058C802.637 585.922 801.896 587.709 800.578 589.027C799.261 590.344 797.474 591.086 795.611 591.088H699.382C697.518 591.086 695.732 590.344 694.414 589.027C693.097 587.709 692.356 585.922 692.354 584.058Z" fill="#C2C7CA"/>
<path d="M747.496 564.051C751.079 564.051 753.984 561.146 753.984 557.562C753.984 553.979 751.079 551.074 747.496 551.074C743.913 551.074 741.009 553.979 741.009 557.562C741.009 561.146 743.913 564.051 747.496 564.051Z" fill="white"/>
<path d="M251.264 495.203C250.388 493.877 249.232 492.758 247.877 491.927C246.522 491.096 245.001 490.572 243.422 490.392C241.842 490.212 240.243 490.381 238.736 490.886C237.229 491.392 235.851 492.221 234.699 493.317L200.365 475.592L202.5 495.56L234.776 509.331C236.745 511.144 239.31 512.172 241.986 512.22C244.661 512.269 247.262 511.333 249.294 509.592C251.326 507.85 252.649 505.424 253.012 502.772C253.375 500.12 252.753 497.427 251.264 495.203H251.264Z" fill="#AE8872"/>
<path d="M220.751 503.24C220.13 503.525 219.455 503.676 218.772 503.684C218.089 503.691 217.411 503.554 216.784 503.283L184.172 489.133C173.021 484.296 164.006 475.573 158.804 464.586L141.659 428.389C140.394 426.763 139.461 424.904 138.915 422.917C138.368 420.93 138.219 418.856 138.475 416.811C138.731 414.767 139.387 412.793 140.407 411.002C141.426 409.212 142.788 407.64 144.415 406.376C146.042 405.113 147.902 404.182 149.889 403.638C151.876 403.094 153.951 402.947 155.994 403.206C158.038 403.464 160.011 404.123 161.8 405.145C163.589 406.167 165.159 407.531 166.42 409.16L196.557 465.086L224.384 486.111C225.181 486.716 225.772 487.55 226.079 488.502C226.386 489.454 226.393 490.477 226.1 491.433L223.368 500.257C223.075 501.203 222.5 502.037 221.721 502.649C221.422 502.883 221.096 503.082 220.751 503.24Z" fill="#78C2DA"/>
<path d="M140.904 385.819C155.57 385.819 167.46 373.927 167.46 359.257C167.46 344.588 155.57 332.696 140.904 332.696C126.237 332.696 114.348 344.588 114.348 359.257C114.348 373.927 126.237 385.819 140.904 385.819Z" fill="#AE8872"/>
<path d="M151.66 707.697H164.915L171.222 656.558H151.657L151.66 707.697Z" fill="#AE8872"/>
<path d="M190.481 720.007L148.821 720.009L148.82 703.91L174.385 703.909C178.654 703.908 182.748 705.604 185.766 708.623C188.785 711.643 190.481 715.737 190.481 720.007L190.481 720.007Z" fill="#1C1F2A"/>
<path d="M108.411 707.697H121.666L127.973 656.558H108.408L108.411 707.697Z" fill="#AE8872"/>
<path d="M147.231 720.007L105.571 720.009L105.57 703.91L131.135 703.909C135.404 703.908 139.498 705.604 142.516 708.623C145.535 711.643 147.231 715.737 147.231 720.007L147.231 720.007Z" fill="#1C1F2A"/>
<path d="M103.783 693.059C103.326 692.538 102.986 691.925 102.786 691.261C102.585 690.597 102.529 689.898 102.621 689.211L125.829 515.113L183.489 524.907L189.643 521.214L173.73 686.4C173.598 687.515 173.085 688.55 172.278 689.331C171.471 690.112 170.42 690.591 169.301 690.686L151.842 692.142C151.148 692.2 150.449 692.108 149.794 691.873C149.138 691.637 148.541 691.264 148.042 690.778C147.543 690.291 147.154 689.704 146.902 689.054C146.65 688.405 146.54 687.709 146.58 687.013L151.1 608.346C151.108 608.212 151.066 608.08 150.983 607.976C150.899 607.871 150.78 607.802 150.648 607.78C150.516 607.758 150.38 607.787 150.268 607.859C150.155 607.932 150.074 608.043 150.039 608.173L127.676 691.12C127.396 692.153 126.784 693.065 125.936 693.715C125.087 694.366 124.047 694.719 122.978 694.721H107.444C106.751 694.721 106.065 694.572 105.434 694.286C104.802 693.999 104.24 693.581 103.783 693.059Z" fill="#1C1F2A"/>
<path d="M143.715 527.299C143.054 526.7 142.203 526.351 141.311 526.314C140.419 526.277 139.542 526.553 138.833 527.096L127.305 536.064C126.677 536.553 125.939 536.881 125.156 537.019C124.372 537.157 123.567 537.1 122.81 536.854C122.054 536.607 121.369 536.179 120.817 535.607C120.264 535.034 119.861 534.335 119.641 533.57C113.987 513.762 101.176 463.904 104.332 428.813C106.121 408.923 123.294 393.805 142.613 395.074C155.821 395.955 164.51 403.575 168.439 417.724C178.086 452.463 188.689 516.184 190.716 528.606C190.876 529.57 190.741 530.559 190.329 531.445C189.917 532.33 189.246 533.071 188.406 533.568C182.952 536.844 176.72 538.598 170.358 538.648C162.661 538.648 153.431 535.968 143.715 527.299Z" fill="#78C2DA"/>
<path d="M148.065 539.657C148.194 538.072 147.974 536.479 147.421 534.988C146.868 533.498 145.995 532.147 144.863 531.031C143.731 529.914 142.368 529.06 140.871 528.527C139.373 527.994 137.777 527.797 136.194 527.948L120.115 492.808L109.474 509.838L126.375 540.597C126.805 543.239 128.189 545.631 130.265 547.32C132.34 549.01 134.964 549.879 137.637 549.763C140.311 549.647 142.849 548.554 144.771 546.692C146.693 544.829 147.865 542.326 148.065 539.657H148.065Z" fill="#AE8872"/>
<path d="M119.096 527.147C118.432 526.988 117.808 526.691 117.265 526.275C116.723 525.858 116.275 525.333 115.949 524.732L99.0175 493.468C93.2273 482.78 91.5157 470.351 94.2013 458.495L103.044 419.43C103.052 417.37 103.466 415.331 104.262 413.431C105.058 411.531 106.221 409.807 107.684 408.357C109.146 406.906 110.881 405.759 112.787 404.979C114.694 404.2 116.735 403.804 118.795 403.814C120.854 403.824 122.892 404.24 124.791 405.038C126.689 405.836 128.412 407.001 129.861 408.465C131.309 409.93 132.455 411.665 133.233 413.573C134.01 415.481 134.404 417.523 134.392 419.583L123.6 482.191L132.524 515.911C132.777 516.879 132.728 517.901 132.382 518.839C132.036 519.777 131.411 520.587 130.59 521.158L122.996 526.415C122.182 526.979 121.215 527.281 120.224 527.28C119.844 527.281 119.466 527.236 119.096 527.147Z" fill="#78C2DA"/>
<path opacity="0.2" d="M132.238 445.987L122.507 487.082L136.563 521.689L126.832 488.163L132.238 445.987Z" fill="#1C1F2A"/>
<path d="M125.75 381.099C123.388 381.143 121.041 380.718 118.844 379.849C117.877 379.477 116.873 379.17 115.908 378.798C107.386 375.504 101.773 366.427 101.572 357.291C101.371 348.156 106.101 339.289 113.124 333.445C120.148 327.602 129.245 324.602 138.355 323.908C148.167 323.161 159.216 325.65 164.699 333.823C166.159 335.999 167.179 338.638 166.315 341.265C166.055 342.058 165.593 342.769 164.973 343.326C162.524 345.505 160.083 343.867 157.587 343.722C154.156 343.523 151.074 346.301 149.967 349.555C148.859 352.809 149.347 356.392 150.241 359.711C150.922 361.708 151.352 363.782 151.519 365.886C151.592 366.941 151.393 367.996 150.943 368.953C150.493 369.91 149.806 370.736 148.948 371.352C146.804 372.649 143.988 371.898 141.843 370.604C139.698 369.31 137.844 367.511 135.527 366.558C133.21 365.606 130.096 365.817 128.748 367.929C128.319 368.697 128.029 369.535 127.891 370.404C126.682 375.914 126.959 375.589 125.75 381.099L125.75 381.099Z" fill="#1C1F2A"/>
<g filter="url(#filter0_d_1223_1803)">
<path d="M225.57 495.368C225.122 494.802 224.81 494.14 224.656 493.435C224.502 492.729 224.511 491.997 224.683 491.296C228.782 474.123 228.782 456.227 224.683 439.055C224.511 438.353 224.502 437.622 224.656 436.916C224.81 436.21 225.122 435.549 225.57 434.982C226.009 434.424 226.568 433.972 227.207 433.663C227.846 433.353 228.548 433.193 229.258 433.195H273.077C274.197 433.197 275.279 433.597 276.132 434.323C276.985 435.049 277.552 436.054 277.733 437.159C280.592 455.727 280.592 474.624 277.733 493.192C277.552 494.297 276.985 495.302 276.132 496.028C275.279 496.754 274.197 497.153 273.077 497.155H229.258C228.548 497.158 227.846 496.998 227.207 496.688C226.568 496.378 226.008 495.927 225.57 495.368Z" fill="white"/>
</g>
<path d="M264.621 456.795H241.538C240.678 456.794 239.853 456.452 239.245 455.843C238.637 455.235 238.295 454.41 238.294 453.55V452.173C238.295 451.312 238.637 450.488 239.245 449.88C239.853 449.271 240.678 448.929 241.538 448.928H264.621C265.481 448.929 266.306 449.271 266.914 449.88C267.522 450.488 267.864 451.312 267.865 452.173V453.55C267.864 454.41 267.522 455.235 266.914 455.843C266.306 456.452 265.481 456.794 264.621 456.795Z" fill="#D4D9DC"/>
<path d="M264.621 470.364H241.538C240.678 470.363 239.853 470.021 239.245 469.413C238.637 468.804 238.295 467.98 238.294 467.12V465.742C238.295 464.882 238.637 464.057 239.245 463.449C239.853 462.841 240.678 462.498 241.538 462.498H264.621C265.481 462.498 266.306 462.841 266.914 463.449C267.522 464.057 267.864 464.882 267.865 465.742V467.12C267.864 467.98 267.522 468.804 266.914 469.413C266.306 470.021 265.481 470.363 264.621 470.364Z" fill="#D4D9DC"/>
</g>
<defs>
<filter id="filter0_d_1223_1803" x="216.547" y="427.195" width="71.3301" height="79.96" filterUnits="userSpaceOnUse" color-interpolation-filters="sRGB">
<feFlood flood-opacity="0" result="BackgroundImageFix"/>
<feColorMatrix in="SourceAlpha" type="matrix" values="0 0 0 0 0 0 0 0 0 0 0 0 0 0 0 0 0 0 127 0" result="hardAlpha"/>
<feOffset dy="2"/>
<feGaussianBlur stdDeviation="4"/>
<feComposite in2="hardAlpha" operator="out"/>
<feColorMatrix type="matrix" values="0 0 0 0 0.831373 0 0 0 0 0.85098 0 0 0 0 0.862745 0 0 0 0.8 0"/>
<feBlend mode="normal" in2="BackgroundImageFix" result="effect1_dropShadow_1223_1803"/>
<feBlend mode="normal" in="SourceGraphic" in2="effect1_dropShadow_1223_1803" result="shape"/>
</filter>
<clipPath id="clip0_1223_1803">
<rect width="960" height="720" fill="white"/>
</clipPath>
</defs>
</svg>
